<?xml version="1.0" standalone="no"?>
<!DOCTYPE svg PUBLIC "-//W3C//DTD SVG 20010904//EN"
 "http://www.w3.org/TR/2001/REC-SVG-20010904/DTD/svg10.dtd">
<svg version="1.0" xmlns="http://www.w3.org/2000/svg"
 width="225.000000pt" height="225.000000pt" viewBox="0 0 225.000000 225.000000"
 preserveAspectRatio="xMidYMid meet">
<metadata>
Created by potrace 1.14, written by Peter Selinger 2001-2017
</metadata>
<g transform="translate(0.000000,225.000000) scale(0.100000,-0.100000)"
fill="#000000" stroke="none">
<path d="M743 1750 c-36 -15 -46 -71 -42 -236 4 -166 11 -187 72 -224 30 -19
52 -20 352 -20 300 0 322 1 352 20 61 37 68 58 72 224 5 214 -9 246 -105 246
l-34 0 0 -70 0 -70 -75 0 -75 0 0 70 0 70 -135 0 -135 0 0 -70 0 -70 -75 0
-75 0 0 70 0 70 -37 -1 c-21 0 -48 -4 -60 -9z"/>
<path d="M850 1163 c-1 -16 -5 -95 -9 -178 -12 -203 -39 -301 -108 -392 -14
-18 -26 -47 -26 -65 l-2 -33 420 0 420 0 -2 33 c0 18 -12 47 -26 65 -69 91
-96 189 -108 392 -4 83 -8 162 -9 178 l0 27 -275 0 -275 0 0 -27z"/>
<path d="M589 401 c-22 -18 -24 -26 -24 -121 0 -154 -56 -140 560 -140 616 0
560 -14 560 140 0 154 56 140 -560 140 -490 0 -514 -1 -536 -19z"/>
</g>
</svg>
